<svg xmlns="http://www.w3.org/2000/svg" width="64.8" height="98.68" viewBox="0 0 64.8 98.68">
    <path d="M-299.96-67.4a6.47,6.47,0,0,1-1.8-4.24,7.444,7.444,0,0,1,1.32-4.16,14,14,0,0,1,3.28-3.48,30.556,30.556,0,0,1,3.8-2.479,37.479,37.479,0,0,1,4.182-1.867q-.758-.727-1.5-1.493-2.319-2.319-4.4-4.32-4.72-4.4-9.36-4.4a6.366,6.366,0,0,0-3.4,1.08,3.357,3.357,0,0,0-1.841,2.4q-.12,1.32-.68,1.24-.641,0-.641-1.561t2.04-3.559a6.325,6.325,0,0,1,4.52-2q6.881,0,14.961,6.48,2.579,2.11,5.352,4.285.6-.206,1.087-.366,1.84-.6,5.76-1.8t5.2-1.6a26.152,26.152,0,0,0,1.44-7.04q0-4.159-2.32-4.16a2.641,2.641,0,0,0-.64.08q-.617.322-1.154.577a27.74,27.74,0,0,1-13.766,3.7,15.633,15.633,0,0,1-9.52-2.88,16.493,16.493,0,0,1-5.68-7.279,26.1,26.1,0,0,1-1.92-9.6,35.52,35.52,0,0,1,1.04-8.8,49.013,49.013,0,0,1,3.08-8.48,38.978,38.978,0,0,1,4.84-7.92,57.864,57.864,0,0,1,6-6.48,21.577,21.577,0,0,1,13.361-6.08,5.4,5.4,0,0,1,.879-.08,10.769,10.769,0,0,1,5.44,1.52q.56.32.6.64t-.36.481a1.934,1.934,0,0,1-1.2-.08,7.41,7.41,0,0,0-2.08-.24q-3.6,0-8.08,3.04a41.615,41.615,0,0,0-10.56,10.8,51.1,51.1,0,0,0-7.04,15.12,30.6,30.6,0,0,0-1.44,8.48q0,9.28,5.12,13.6A10.811,10.811,0,0,0-289-97.68q8,0,15.92-6a50.05,50.05,0,0,0,4.192-3.588l.087-.131a5.527,5.527,0,0,0,1.04-2.96A3.99,3.99,0,0,0-268.88-113a3.2,3.2,0,0,0-2.4-1.28q-4,0-6.64,4.56-2.24,3.76-4.24,8-.481,1.119-1.04.76t.08-1.64q4.24-8.32,4.72-9.12,3.6-6.561,9.84-6.56a4.825,4.825,0,0,1,4.24,2.08,5.218,5.218,0,0,1,.789,2.815,37.545,37.545,0,0,0,7.571-22.375,26.374,26.374,0,0,0-4.4-15.041,23.852,23.852,0,0,0-15.68-10.319,27.3,27.3,0,0,0-6.16-.72,41.312,41.312,0,0,0-5.839.4q-9.2,1.2-13.12,7.92a18.054,18.054,0,0,0-2.56,9.52,27.425,27.425,0,0,0,.88,6.64q.32,1.359-.4,1.679t-1.52-1.2a18.133,18.133,0,0,1-2-8.2,15.32,15.32,0,0,1,2.88-8.52q5.2-7.839,15.52-9.6a58.112,58.112,0,0,1,8.48-.8q10.16,0,15.84,3.2,9.041,5.041,11.2,13.92a36.565,36.565,0,0,1,1.12,9.2,33.823,33.823,0,0,1-1.64,10.121,55.222,55.222,0,0,1-4.24,10,45.447,45.447,0,0,1-6.6,9.08,46.713,46.713,0,0,1-6.834,6.281q5.038.082,5.194,5.2a19.358,19.358,0,0,1-.88,5.84q6.08-1.2,12.32-14.32.32-.72.8-.8.56-.24.56.48,0,.88-2.08,4.64a56.429,56.429,0,0,1-3.919,6.24,17.128,17.128,0,0,1-2.155,2.543q8.892,1.6,12.995,7.017a8.884,8.884,0,0,1,2,4.919,7.519,7.519,0,0,1-.959,3.8q-2.961,5.041-13.56,5.04a38.288,38.288,0,0,1-15.592-3.009l-.129.129a33.654,33.654,0,0,1-14.6,8.6,13.717,13.717,0,0,1-3.68.56A6.551,6.551,0,0,1-299.96-67.4Zm7.32-12.88a12.439,12.439,0,0,0-5.839,7.04,10.291,10.291,0,0,0-.481,3.12,2.5,2.5,0,0,0,1.2,2.32,4.4,4.4,0,0,0,2.239.72A16.061,16.061,0,0,0-287.08-70a37.207,37.207,0,0,0,7.471-6.307,51.01,51.01,0,0,1-8.35-6.184A33.786,33.786,0,0,0-292.64-80.28Zm20.16,2.2A49.08,49.08,0,0,0-260.12-74a21.1,21.1,0,0,0,4.24.48q4.88,0,6.64-3.04a6.281,6.281,0,0,0,.8-3.24,8.262,8.262,0,0,0-1.76-4.44q-3.68-5.44-11.36-6.72a2.062,2.062,0,0,1-.942-.307,11.594,11.594,0,0,1-4.7,2.107,40.624,40.624,0,0,1-5.847,10.8Zm-9.6-5.8a48.307,48.307,0,0,0,5.6,3.687A32.046,32.046,0,0,0-272.8-87.24q-1.681.559-5.28,1.6-2.7.781-4.547,1.336Z"
          transform="translate(311 164)" fill="rgba(0,0,0,0.87)"/>
</svg>
