<svg xmlns="http://www.w3.org/2000/svg" xmlns:xlink="http://www.w3.org/1999/xlink" width="135.917" height="150" viewBox="0 0 135.917 150"><defs><linearGradient id="a" x1="0.5" y1="0.007" x2="0.5" y2="1.007" gradientUnits="objectBoundingBox"><stop offset="0" stop-color="#1ba94c"/><stop offset="1" stop-color="#32c766"/></linearGradient></defs><path d="M135.861,67.338h0c-.216-14.029-1.295-26.655-3.13-29.784-1.511-2.59-9.173-8.094-18.669-14.137L88.6,8.633C78.991,3.561,70.9,0,67.984,0c-3.561,0-15.108,5.4-27.41,12.3-9.388,5.18-19.209,11.115-26.547,16.079-5.612,3.885-9.82,7.23-10.9,9.173S1.185,44.892.753,52.122h0C.106,61.187-.11,72.95.106,83.741.43,97.446,1.4,109.532,3.128,112.554,7.444,119.892,59.458,150,67.984,150c3.561,0,14.568-5.18,26.547-11.763,9.5-5.18,19.532-11.331,27.086-16.4h0c5.827-3.993,10.036-7.338,11.223-9.281s1.942-7.23,2.374-14.245h0C135.861,89.46,136.077,77.914,135.861,67.338ZM98.523,106.619l-10.468,9.5a1.538,1.538,0,0,1-1.295.647,1.74,1.74,0,0,1-1.4-.647l-9.82-9.5a1.568,1.568,0,0,1,.863-2.914h2.806V82.446H56.869v23.417a1.66,1.66,0,0,1-1.619,1.619H42.732a1.66,1.66,0,0,1-1.619-1.619h0V46.295H38.2a1.66,1.66,0,0,1-1.619-1.619,1.845,1.845,0,0,1,.755-1.4l10.468-9.5A1.538,1.538,0,0,1,49.1,33.13a1.74,1.74,0,0,1,1.4.647l9.82,9.5a1.568,1.568,0,0,1-.863,2.914H56.653v20.4H78.991V43.921A1.66,1.66,0,0,1,80.61,42.3H93.128a1.66,1.66,0,0,1,1.619,1.619h0v59.568H97.66a1.66,1.66,0,0,1,1.619,1.619C99.279,105.863,99.063,106.4,98.523,106.619Z" transform="translate(-0.025)" fill="url(#a)"/></svg>